<?xml version="1.0" encoding="UTF-8" standalone="no"?>
<svg
   xmlns:dc="http://purl.org/dc/elements/1.1/"
   xmlns:cc="http://creativecommons.org/ns#"
   xmlns:rdf="http://www.w3.org/1999/02/22-rdf-syntax-ns#"
   xmlns:svg="http://www.w3.org/2000/svg"
   xmlns="http://www.w3.org/2000/svg"
   xmlns:sodipodi="http://sodipodi.sourceforge.net/DTD/sodipodi-0.dtd"
   xmlns:inkscape="http://www.inkscape.org/namespaces/inkscape"
   width="157mm"
   height="186mm"
   viewBox="0 0 157 186"
   id="svg1583"
   version="1.1"
   sodipodi:docname="normal_marker_bckg.svg"
   inkscape:version="1.0beta2 (2b71d25, 2019-12-03)">
  <sodipodi:namedview
     pagecolor="#ffffff"
     bordercolor="#666666"
     inkscape:document-rotation="0"
     borderopacity="1"
     objecttolerance="10"
     gridtolerance="10"
     guidetolerance="10"
     inkscape:pageopacity="0"
     inkscape:pageshadow="2"
     inkscape:window-width="1030"
     inkscape:window-height="689"
     id="namedview1901"
     showgrid="false"
     inkscape:zoom="0.44666219"
     inkscape:cx="-451.6399"
     inkscape:cy="288.80886"
     inkscape:window-x="147"
     inkscape:window-y="146"
     inkscape:window-maximized="0"
     inkscape:current-layer="g2397" />
  <defs
     id="defs1577" />
  <metadata
     id="metadata1580">
    <rdf:RDF>
      <cc:Work
         rdf:about="">
        <dc:format>image/svg+xml</dc:format>
        <dc:type
           rdf:resource="http://purl.org/dc/dcmitype/StillImage" />
        <dc:title></dc:title>
      </cc:Work>
    </rdf:RDF>
  </metadata>
  <g
     id="layer1">
    <g
       id="g2811">
      <g
         transform="matrix(1.2865343,0,0,1.2842892,32.397764,196.74041)"
         id="g1209-7-0-8-6-7">
        <path
           id="rect10-1-5-3-7-9-0-3"
           style="fill:#b3b3b3;fill-opacity:1;fill-rule:evenodd;stroke-width:0.281279"
           d="M -7.6199532,-153.08035 H 83.215191 c 4.782696,0 8.633026,3.85706 8.633026,8.64812 v 127.090659 c 0,4.791059 -3.85033,8.6481201 -8.633026,8.6481201 H -7.6199532 c -4.7826968,0 -8.6330258,-3.8570611 -8.6330258,-8.6481201 V -144.43223 c 0,-4.79106 3.850329,-8.64812 8.6330258,-8.64812 z"
           inkscape:connector-curvature="0" />
        <path
           id="rect10-3-8-9-7-4-1-4-7"
           style="fill:#ffffff;fill-opacity:1;fill-rule:evenodd;stroke-width:0.254992"
           d="M -6.4763849,-147.41074 H 82.07164 c 2.178508,0 3.932324,1.75689 3.932324,3.9392 v 125.169228 c 0,2.182316 -1.753816,3.939199 -3.932324,3.939199 H -6.4763849 c -2.1785078,0 -3.9323251,-1.756883 -3.9323251,-3.939199 V -143.47154 c 0,-2.18231 1.7538173,-3.9392 3.9323251,-3.9392 z"
           inkscape:connector-curvature="0" />
        <path
           id="rect879-7-4-9-8-4-0-9"
           style="fill:#b3b3b3;fill-opacity:1;stroke-width:0.204945"
           d="M -14.741077,-45.735157 H 88.824406 v 6.803572 H -14.741077 Z"
           inkscape:connector-curvature="0" />
        <path
           id="path881-6-3-0-5-8-5-0"
           style="fill:#b3b3b3;fill-opacity:1;stroke-width:0.086729"
           d="M -0.30413437,-44.245342 A 11.842017,11.195063 0 0 1 -12.146152,-33.05028 11.842017,11.195063 0 0 1 -23.988169,-44.245342 11.842017,11.195063 0 0 1 -12.146152,-55.440405 11.842017,11.195063 0 0 1 -0.30413437,-44.245342"
           inkscape:connector-curvature="0" />
        <g
           transform="matrix(0.43322369,-0.47691105,0.47691105,0.43322369,-214.25271,19.366035)"
           id="g1008-2-8-8-6-2">
          <g
             transform="matrix(0.74806221,0,0,0.74806221,70.878865,41.384912)"
             id="g1012-3-3-7-8-3">
            <path
               id="rect887-6-3-9-0-1-5-9"
               style="fill:#ffffff;fill-opacity:1;stroke-width:0.292797"
               transform="matrix(0.99992118,-0.0125551,0.01227413,0.99992467,0,0)"
               d="m 271.00732,167.87102 h 24.99585 v 5.29166 h -24.99585 z"
               inkscape:connector-curvature="0" />
            <path
               id="rect887-4-2-6-9-6-9-3-9"
               style="fill:#ffffff;fill-opacity:1;stroke-width:0.198516"
               transform="matrix(0.04037515,0.99918459,-0.99925207,0.0386691,0,0)"
               d="m 168.69128,-271.32718 h 11.49011 v 5.29165 h -11.49011 z"
               inkscape:connector-curvature="0" />
          </g>
        </g>
      </g>
      <g
         style="font-style:normal;font-weight:normal;font-size:16.8383px;line-height:1.25;font-family:sans-serif;letter-spacing:2.35166px;fill:#b3b2b2;fill-opacity:1;stroke:none;stroke-width:0.420961"
         id="text1715-1-4-8-7-7-2-1-6-0"
         transform="scale(1.0508014,0.95165462)"
         aria-label="     DE ">
        <path
           id="path2252"
           style="font-style:normal;font-variant:normal;font-weight:normal;font-stretch:normal;font-family:Verdana;-inkscape-font-specification:Verdana;letter-spacing:2.35166px;fill:#b3b2b2;fill-opacity:1;stroke-width:0.420961"
           d="m 102.65186,170.70466 q 0,1.66903 -0.73174,3.02563 -0.72352,1.3566 -1.932132,2.10479 -0.838627,0.51797 -1.874577,0.74819 -1.027728,0.23021 -2.713203,0.23021 h -3.091406 v -12.2423 h 3.058519 q 1.792358,0 2.844752,0.2631 1.060616,0.25487 1.792357,0.70707 1.24972,0.78108 1.94857,2.08012 0.69886,1.29905 0.69886,3.08319 z m -1.70192,-0.0247 q 0,-1.43882 -0.50153,-2.42543 -0.501532,-0.98662 -1.496373,-1.55393 -0.72352,-0.41109 -1.537481,-0.56731 -0.813961,-0.16443 -1.948573,-0.16443 h -1.52926 v 9.44688 h 1.52926 q 1.175721,0 2.047235,-0.17266 0.879735,-0.17266 1.611478,-0.6413 0.912624,-0.58375 1.364824,-1.53749 0.46042,-0.95373 0.46042,-2.38433 z"
           inkscape:connector-curvature="0" />
        <path
           id="path2254"
           style="font-style:normal;font-variant:normal;font-weight:normal;font-stretch:normal;font-family:Verdana;-inkscape-font-specification:Verdana;letter-spacing:2.35166px;fill:#b3b2b2;fill-opacity:1;stroke-width:0.420961"
           d="m 115.71656,176.81348 h -8.06561 v -12.2423 h 8.06561 v 1.44704 h -6.43769 v 3.3545 h 6.43769 v 1.44705 h -6.43769 v 4.54667 h 6.43769 z"
           inkscape:connector-curvature="0" />
      </g>
      <path
         id="path378-2-4-6-9"
         style="fill:none;fill-opacity:1;stroke:#b3b2b2;stroke-width:1.31913;stroke-miterlimit:4;stroke-dasharray:none;stroke-opacity:1"
         d="m 89.018145,162.1698 a 5.3998127,5.3998127 0 0 1 -5.399813,5.39981 5.3998127,5.3998127 0 0 1 -5.399813,-5.39981 5.3998127,5.3998127 0 0 1 5.399813,-5.39981 5.3998127,5.3998127 0 0 1 5.399813,5.39981"
         inkscape:connector-curvature="0" />
      <g
         style="font-style:normal;font-weight:normal;font-size:16.8383px;line-height:1.25;font-family:sans-serif;letter-spacing:2.35166px;fill:#b3b2b2;fill-opacity:1;stroke:none;stroke-width:0.420961"
         id="text1715-1-4-8-7-7-4-2-9-7-8"
         transform="scale(1.0508014,0.95165462)"
         aria-label="           UPC        ">
        <path
           id="path2245"
           style="font-style:normal;font-variant:normal;font-weight:normal;font-stretch:normal;font-family:Verdana;-inkscape-font-specification:Verdana;letter-spacing:2.35166px;fill:#b3b2b2;fill-opacity:1;stroke-width:0.420961"
           d="m 38.945589,171.13916 q 0,1.33194 -0.295985,2.32678 -0.287764,0.98662 -0.953732,1.64437 -0.633081,0.62486 -1.479929,0.91262 -0.846848,0.28776 -1.973238,0.28776 -1.151056,0 -2.006126,-0.3042 -0.85507,-0.30421 -1.43882,-0.89618 -0.665968,-0.67419 -0.961953,-1.62793 -0.287764,-0.95373 -0.287764,-2.34322 v -7.32564 h 1.627921 v 7.40786 q 0,0.99484 0.13155,1.57037 0.139771,0.57553 0.460422,1.04417 0.36176,0.53442 0.978397,0.80574 0.624859,0.27132 1.496373,0.27132 0.879735,0 1.496372,-0.2631 0.616637,-0.27132 0.986619,-0.81396 0.320651,-0.46864 0.452201,-1.06883 0.139771,-0.60842 0.139771,-1.5046 v -7.44897 h 1.627921 z"
           inkscape:connector-curvature="0" />
        <path
           id="path2247"
           style="font-style:normal;font-variant:normal;font-weight:normal;font-stretch:normal;font-family:Verdana;-inkscape-font-specification:Verdana;letter-spacing:2.35166px;fill:#b3b2b2;fill-opacity:1;stroke-width:0.420961"
           d="m 52.421381,167.51334 q 0,0.81396 -0.287764,1.51281 -0.279543,0.69064 -0.789296,1.20039 -0.63308,0.63308 -1.496372,0.95373 -0.863292,0.31243 -2.178784,0.31243 h -1.627922 v 4.56312 h -1.627922 v -12.2423 h 3.321618 q 1.101725,0 1.866355,0.1891 0.76463,0.18088 1.356601,0.57553 0.698856,0.46864 1.07706,1.1675 0.386426,0.69885 0.386426,1.76769 z m -1.693697,0.0411 q 0,-0.63308 -0.221989,-1.10173 -0.221989,-0.46864 -0.67419,-0.76463 -0.394648,-0.25487 -0.904401,-0.36176 -0.501531,-0.1151 -1.274383,-0.1151 h -1.611478 v 4.89198 h 1.373045 q 0.986619,0 1.603256,-0.17265 0.616637,-0.18088 1.003063,-0.56731 0.386426,-0.39465 0.542641,-0.8304 0.164436,-0.43576 0.164436,-0.9784 z"
           inkscape:connector-curvature="0" />
        <path
           id="path2249"
           style="font-style:normal;font-variant:normal;font-weight:normal;font-stretch:normal;font-family:Verdana;-inkscape-font-specification:Verdana;letter-spacing:2.35166px;fill:#b3b2b2;fill-opacity:1;stroke-width:0.420961"
           d="m 66.382261,175.16786 q -0.452201,0.19732 -0.822183,0.36998 -0.36176,0.17266 -0.953732,0.36176 -0.501531,0.15622 -1.093503,0.2631 -0.583749,0.11511 -1.290826,0.11511 -1.331936,0 -2.425439,-0.36999 -1.085281,-0.3782 -1.89102,-1.17572 -0.789296,-0.78107 -1.233274,-1.98146 -0.443979,-1.20861 -0.443979,-2.80364 0,-1.51282 0.427535,-2.70498 0.427535,-1.19217 1.233274,-2.01435 0.781073,-0.79752 1.882798,-1.21683 1.109947,-0.41931 2.458326,-0.41931 0.98662,0 1.965017,0.23843 0.986619,0.23843 2.187006,0.83863 v 1.93213 h -0.123328 q -1.011284,-0.84685 -2.006125,-1.23328 -0.994841,-0.38642 -2.129453,-0.38642 -0.929067,0 -1.677253,0.3042 -0.739964,0.29599 -1.323714,0.92907 -0.567306,0.61664 -0.887957,1.56215 -0.31243,0.93729 -0.31243,2.17056 0,1.29083 0.345317,2.21989 0.353539,0.92907 0.904401,1.51282 0.575528,0.60841 1.340158,0.9044 0.772851,0.28776 1.627921,0.28776 1.175721,0 2.20345,-0.40287 1.027728,-0.40287 1.923907,-1.2086 h 0.115106 z"
           inkscape:connector-curvature="0" />
      </g>
      <path
         id="path378-7-1-9-8-5"
         style="fill:none;fill-opacity:1;stroke:#ffed00;stroke-width:3.07158;stroke-miterlimit:4;stroke-dasharray:none;stroke-opacity:1"
         d="m 93.230169,162.21986 a 9.8622189,9.8622189 0 0 1 -9.862219,9.86222 9.8622189,9.8622189 0 0 1 -9.862218,-9.86222 9.8622189,9.8622189 0 0 1 9.862218,-9.86221 9.8622189,9.8622189 0 0 1 9.862219,9.86221"
         inkscape:connector-curvature="0" />
      <g
         style="font-style:normal;font-weight:normal;font-size:4.23543px;line-height:1.25;font-family:sans-serif;letter-spacing:0.591527px;fill:#b3b2b2;fill-opacity:1;stroke:none;stroke-width:0.105886"
         id="text1715-1-4-8-7-7-4-9-5-0-3"
         transform="scale(1.0508014,0.95165461)"
         aria-label="         TM      ">
        <path
           id="path2257"
           style="font-style:normal;font-variant:normal;font-weight:normal;font-stretch:normal;font-family:Verdana;-inkscape-font-specification:Verdana;letter-spacing:0.591527px;fill:#b3b2b2;fill-opacity:1;stroke-width:0.105886"
           d="m 122.64953,164.2769 h -1.10022 v 2.71539 h -0.40948 v -2.71539 h -1.10022 v -0.36398 h 2.60992 z"
           inkscape:connector-curvature="0" />
        <path
           id="path2259"
           style="font-style:normal;font-variant:normal;font-weight:normal;font-stretch:normal;font-family:Verdana;-inkscape-font-specification:Verdana;letter-spacing:0.591527px;fill:#b3b2b2;fill-opacity:1;stroke-width:0.105886"
           d="m 126.40108,166.99229 h -0.40948 v -2.65334 l -0.85618,1.80543 h -0.24403 l -0.84999,-1.80543 v 2.65334 h -0.38259 v -3.07937 h 0.55838 l 0.82103,1.71444 0.79414,-1.71444 h 0.56872 z"
           inkscape:connector-curvature="0" />
      </g>
      <path
         id="ellipse1698-9"
         style="fill:#b3b3b3;fill-opacity:1;stroke-width:0.125581"
         d="M 33.566305,140.14815 A 16.66695,16.676931 0 0 1 16.899355,156.82508 16.66695,16.676931 0 0 1 0.23240471,140.14815 16.66695,16.676931 0 0 1 16.899355,123.47122 a 16.66695,16.676931 0 0 1 16.66695,16.67693"
         inkscape:connector-curvature="0" />
      <g
         style="font-style:normal;font-variant:normal;font-weight:bold;font-stretch:normal;font-size:24.0194px;line-height:1.25;font-family:'Open Sans';-inkscape-font-specification:'Open Sans Bold';font-variant-ligatures:normal;font-variant-caps:normal;font-variant-numeric:normal;font-variant-east-asian:normal;fill:#ffffff;fill-opacity:1;stroke:none;stroke-width:0.600483"
         id="text1702-1"
         transform="scale(0.9720093,1.0287967)"
         aria-label="           ?        ">
        <path
           id="path2265"
           style="font-style:normal;font-variant:normal;font-weight:bold;font-stretch:normal;font-size:24.0194px;font-family:'Open Sans';-inkscape-font-specification:'Open Sans Bold';font-variant-ligatures:normal;font-variant-caps:normal;font-variant-numeric:normal;font-variant-east-asian:normal;fill:#ffffff;fill-opacity:1;stroke-width:0.600483"
           d="m 15.383284,138.90126 v -0.86789 q 0,-1.12591 0.480857,-1.95861 0.480857,-0.83271 1.759233,-1.77096 1.231464,-0.87962 1.618495,-1.43085 0.39876,-0.55122 0.39876,-1.23146 0,-0.76234 -0.562955,-1.16109 -0.562955,-0.39876 -1.571582,-0.39876 -1.759233,0 -4.011052,1.14936 l -1.278376,-2.56848 q 2.615394,-1.46603 5.547449,-1.46603 2.416014,0 3.835129,1.1611 1.430843,1.16109 1.430843,3.09625 0,1.2901 -0.586411,2.22836 -0.586411,0.93826 -2.228362,2.11108 -1.12591,0.8327 -1.430843,1.26665 -0.293206,0.43394 -0.293206,1.13764 v 0.70369 z m -0.375303,4.01105 q 0,-0.98517 0.52777,-1.48948 0.52777,-0.50432 1.536397,-0.50432 0.973443,0 1.501213,0.51605 0.539498,0.51604 0.539498,1.47775 0,0.92653 -0.539498,1.46603 -0.539499,0.52777 -1.501213,0.52777 -0.985171,0 -1.524669,-0.51604 -0.539498,-0.52777 -0.539498,-1.47776 z"
           inkscape:connector-curvature="0" />
      </g>
    </g>
    <g
       id="g2397"
       transform="matrix(0.92929482,0,0,0.92929482,213.97004,137.03796)" />
  </g>
</svg>
