<?xml version="1.0" encoding="UTF-8" standalone="no"?>
<svg
   xmlns:dc="http://purl.org/dc/elements/1.1/"
   xmlns:cc="http://creativecommons.org/ns#"
   xmlns:rdf="http://www.w3.org/1999/02/22-rdf-syntax-ns#"
   xmlns:svg="http://www.w3.org/2000/svg"
   xmlns="http://www.w3.org/2000/svg"
   xmlns:sodipodi="http://sodipodi.sourceforge.net/DTD/sodipodi-0.dtd"
   xmlns:inkscape="http://www.inkscape.org/namespaces/inkscape"
   width="157mm"
   height="186mm"
   viewBox="0 0 157 186"
   id="svg1583"
   version="1.1"
   sodipodi:docname="risky_marker_bckg.svg"
   inkscape:version="1.0beta2 (2b71d25, 2019-12-03)">
  <sodipodi:namedview
     pagecolor="#ffffff"
     bordercolor="#666666"
     inkscape:document-rotation="0"
     borderopacity="1"
     objecttolerance="10"
     gridtolerance="10"
     guidetolerance="10"
     inkscape:pageopacity="0"
     inkscape:pageshadow="2"
     inkscape:window-width="1389"
     inkscape:window-height="813"
     id="namedview1901"
     showgrid="false"
     inkscape:zoom="0.54472529"
     inkscape:cx="-549.86374"
     inkscape:cy="265.23991"
     inkscape:window-x="201"
     inkscape:window-y="36"
     inkscape:window-maximized="0"
     inkscape:current-layer="layer1" />
  <defs
     id="defs1577" />
  <metadata
     id="metadata1580">
    <rdf:RDF>
      <cc:Work
         rdf:about="">
        <dc:format>image/svg+xml</dc:format>
        <dc:type
           rdf:resource="http://purl.org/dc/dcmitype/StillImage" />
        <dc:title></dc:title>
      </cc:Work>
    </rdf:RDF>
  </metadata>
  <g
     id="layer1">
    <g
       id="g2397"
       transform="matrix(0.9304477,0,0,0.9304477,621.76234,144.84751)">
      <g
         transform="translate(-617.66581,-8.2865348)"
         id="g2839">
        <g
           transform="matrix(1.3875887,0,0,1.3851672,-16.453007,64.653349)"
           id="g1209-7-0-8-6">
          <path
             inkscape:connector-curvature="0"
             d="M -7.6396685,-153.08035 H 83.234906 c 4.771774,0 8.613311,3.84825 8.613311,8.62837 v 127.130158 c 0,4.780117 -3.841537,8.6283711 -8.613311,8.6283711 H -7.6396685 c -4.7717745,0 -8.6133105,-3.8482541 -8.6133105,-8.6283711 V -144.45198 c 0,-4.78012 3.841536,-8.62837 8.6133105,-8.62837 z"
             style="fill:#ffed00;fill-opacity:1;fill-rule:evenodd;stroke-width:0.281279"
             id="rect10-1-5-3-7-9-0" />
          <path
             inkscape:connector-curvature="0"
             d="M -6.4853652,-147.41074 H 82.08062 c 2.173533,0 3.923344,1.75287 3.923344,3.93021 v 125.187214 c 0,2.177332 -1.749811,3.930203 -3.923344,3.930203 H -6.4853652 c -2.1735327,0 -3.9233448,-1.752871 -3.9233448,-3.930203 V -143.48053 c 0,-2.17734 1.7498121,-3.93021 3.9233448,-3.93021 z"
             style="fill:#ffffff;fill-opacity:1;fill-rule:evenodd;stroke-width:0.254992"
             id="rect10-3-8-9-7-4-1-4" />
          <path
             inkscape:connector-curvature="0"
             d="M -14.741077,-45.735157 H 88.824406 v 6.803572 H -14.741077 Z"
             style="fill:#ffed00;fill-opacity:1;stroke-width:0.204945"
             id="rect879-7-4-9-8-4-0" />
          <path
             inkscape:connector-curvature="0"
             d="M -0.30413437,-44.245342 A 11.842017,11.195063 0 0 1 -12.146152,-33.05028 11.842017,11.195063 0 0 1 -23.988169,-44.245342 11.842017,11.195063 0 0 1 -12.146152,-55.440405 11.842017,11.195063 0 0 1 -0.30413437,-44.245342"
             style="fill:#b3b3b3;fill-opacity:1;stroke-width:0.086729"
             id="path881-6-3-0-5-8-5" />
          <g
             transform="matrix(0.43322369,-0.47691105,0.47691105,0.43322369,-214.25271,19.366035)"
             id="g1008-2-8-8-6">
            <g
               transform="matrix(0.74806221,0,0,0.74806221,70.878865,41.384912)"
               id="g1012-3-3-7-8">
              <path
                 inkscape:connector-curvature="0"
                 d="m 271.00732,167.87102 h 24.99585 v 5.29166 h -24.99585 z"
                 transform="matrix(0.99992118,-0.0125551,0.01227413,0.99992467,0,0)"
                 style="fill:#ffffff;fill-opacity:1;stroke-width:0.292797"
                 id="rect887-6-3-9-0-1-5" />
              <path
                 inkscape:connector-curvature="0"
                 d="m 168.69128,-271.32718 h 11.49011 v 5.29165 h -11.49011 z"
                 transform="matrix(0.04037515,0.99918459,-0.99925207,0.0386691,0,0)"
                 style="fill:#ffffff;fill-opacity:1;stroke-width:0.198516"
                 id="rect887-4-2-6-9-6-9-3" />
            </g>
          </g>
        </g>
        <g
           transform="matrix(0.71443627,0,0,0.71443627,147.64755,-208.05348)"
           id="g1242-2-3-7">
          <g
             style="font-style:normal;font-weight:normal;font-size:25.4199px;line-height:1.25;font-family:sans-serif;letter-spacing:3.55018px;fill:#b3b2b2;fill-opacity:1;stroke:none;stroke-width:0.635503"
             id="text1715-1-4-8-7-7-2-1-6"
             transform="scale(1.0508014,0.95165462)"
             aria-label="DE">
            <path
               inkscape:connector-curvature="0"
               id="path2423"
               style="font-style:normal;font-variant:normal;font-weight:normal;font-stretch:normal;font-family:Verdana;-inkscape-font-specification:Verdana;letter-spacing:3.55018px;fill:#b3b2b2;fill-opacity:1;stroke-width:0.635503"
               d="m -109.40405,346.70719 q 0,2.51965 -1.10468,4.56764 -1.09226,2.04799 -2.91683,3.17749 -1.26603,0.78196 -2.82995,1.12949 -1.55151,0.34754 -4.09598,0.34754 h -4.66694 v -18.48156 h 4.61729 q 2.70583,0 4.29457,0.39719 1.60116,0.38477 2.70583,1.06744 1.88664,1.17914 2.94166,3.14025 1.05503,1.9611 1.05503,4.65452 z m -2.5693,-0.0372 q 0,-2.17211 -0.75714,-3.66155 -0.75713,-1.48945 -2.25899,-2.34588 -1.09226,-0.62061 -2.32106,-0.85644 -1.22879,-0.24824 -2.94166,-0.24824 h -2.30864 v 14.26146 h 2.30864 q 1.77493,0 3.09061,-0.26065 1.32809,-0.26066 2.43276,-0.96814 1.37774,-0.88126 2.0604,-2.32106 0.69508,-1.4398 0.69508,-3.5995 z" />
            <path
               inkscape:connector-curvature="0"
               id="path2425"
               style="font-style:normal;font-variant:normal;font-weight:normal;font-stretch:normal;font-family:Verdana;-inkscape-font-specification:Verdana;letter-spacing:3.55018px;fill:#b3b2b2;fill-opacity:1;stroke-width:0.635503"
               d="m -89.680957,355.92935 h -12.176233 v -18.48156 h 12.176233 v 2.18453 h -9.718644 v 5.06412 h 9.718644 v 2.18452 h -9.718644 v 6.86387 h 9.718644 z" />
          </g>
          <path
             inkscape:connector-curvature="0"
             d="m -143.41665,329.51965 a 8.1518202,8.1518202 0 0 1 -8.15182,8.15182 8.1518202,8.1518202 0 0 1 -8.15182,-8.15182 8.1518202,8.1518202 0 0 1 8.15182,-8.15182 8.1518202,8.1518202 0 0 1 8.15182,8.15182"
             style="fill:none;fill-opacity:1;stroke:#b3b2b2;stroke-width:1.99143;stroke-miterlimit:4;stroke-dasharray:none;stroke-opacity:1"
             id="path378-2-4-6" />
          <g
             style="font-style:normal;font-weight:normal;font-size:25.4199px;line-height:1.25;font-family:sans-serif;letter-spacing:3.55018px;fill:#b3b2b2;fill-opacity:1;stroke:none;stroke-width:0.635503"
             id="text1715-1-4-8-7-7-4-2-9-7"
             transform="scale(1.0508014,0.95165462)"
             aria-label="UPC">
            <path
               inkscape:connector-curvature="0"
               id="path2429"
               style="font-style:normal;font-variant:normal;font-weight:normal;font-stretch:normal;font-family:Verdana;-inkscape-font-specification:Verdana;letter-spacing:3.55018px;fill:#b3b2b2;fill-opacity:1;stroke-width:0.635503"
               d="m -205.57814,347.36314 q 0,2.01075 -0.44683,3.51261 -0.43443,1.48945 -1.4398,2.48242 -0.95573,0.94331 -2.23417,1.37773 -1.27845,0.43443 -2.9789,0.43443 -1.73769,0 -3.02854,-0.45925 -1.29086,-0.45925 -2.17211,-1.35291 -1.00538,-1.01779 -1.45221,-2.45759 -0.43443,-1.4398 -0.43443,-3.53744 v -11.05915 h 2.45759 v 11.18327 q 0,1.50186 0.1986,2.3707 0.211,0.86885 0.69507,1.57634 0.54613,0.80678 1.47704,1.21638 0.94331,0.4096 2.25899,0.4096 1.32809,0 2.259,-0.39719 0.9309,-0.4096 1.48944,-1.22879 0.48407,-0.70749 0.68267,-1.61357 0.211,-0.91849 0.211,-2.27141 v -11.24533 h 2.45759 z" />
            <path
               inkscape:connector-curvature="0"
               id="path2431"
               style="font-style:normal;font-variant:normal;font-weight:normal;font-stretch:normal;font-family:Verdana;-inkscape-font-specification:Verdana;letter-spacing:3.55018px;fill:#b3b2b2;fill-opacity:1;stroke-width:0.635503"
               d="m -185.23444,341.88942 q 0,1.2288 -0.43442,2.28382 -0.42201,1.04261 -1.19156,1.81216 -0.95573,0.95573 -2.259,1.4398 -1.30326,0.47166 -3.28919,0.47166 h -2.45759 v 6.88869 h -2.45759 v -18.48156 h 5.01447 q 1.66322,0 2.81754,0.28548 1.15432,0.27307 2.04799,0.86885 1.05503,0.70748 1.62598,1.76251 0.58337,1.05502 0.58337,2.66859 z m -2.55688,0.0621 q 0,-0.95573 -0.33513,-1.66321 -0.33513,-0.70749 -1.01779,-1.15433 -0.59578,-0.38477 -1.36533,-0.54613 -0.75713,-0.17377 -1.92387,-0.17377 h -2.43276 v 7.38518 h 2.07281 q 1.48945,0 2.42036,-0.26065 0.9309,-0.27307 1.51427,-0.85643 0.58336,-0.59578 0.81919,-1.25362 0.24825,-0.65784 0.24825,-1.47704 z" />
            <path
               inkscape:connector-curvature="0"
               id="path2433"
               style="font-style:normal;font-variant:normal;font-weight:normal;font-stretch:normal;font-family:Verdana;-inkscape-font-specification:Verdana;letter-spacing:3.55018px;fill:#b3b2b2;fill-opacity:1;stroke-width:0.635503"
               d="m -164.15843,353.44505 q -0.68266,0.29789 -1.2412,0.55854 -0.54614,0.26066 -1.4398,0.54613 -0.75714,0.23583 -1.65081,0.39719 -0.88125,0.17377 -1.94869,0.17377 -2.01076,0 -3.66156,-0.55854 -1.63839,-0.57096 -2.85477,-1.77493 -1.19156,-1.17914 -1.86181,-2.99131 -0.67025,-1.82457 -0.67025,-4.23251 0,-2.28382 0.64542,-4.08357 0.64543,-1.79975 1.86181,-3.04095 1.17915,-1.20397 2.84236,-1.83699 1.67563,-0.63301 3.71121,-0.63301 1.48945,0 2.96648,0.35995 1.48945,0.35995 3.30161,1.26603 v 2.91683 h -0.18618 q -1.52668,-1.27844 -3.02854,-1.86181 -1.50186,-0.58336 -3.21473,-0.58336 -1.40256,0 -2.53206,0.45924 -1.11708,0.44684 -1.99834,1.40257 -0.85643,0.9309 -1.3405,2.35829 -0.47166,1.41497 -0.47166,3.27678 0,1.9487 0.52131,3.35126 0.53372,1.40256 1.36532,2.28382 0.86885,0.91849 2.02317,1.36532 1.16673,0.43443 2.45759,0.43443 1.77492,0 3.32643,-0.60819 1.55151,-0.6082 2.90442,-1.82458 h 0.17377 z" />
          </g>
          <path
             inkscape:connector-curvature="0"
             d="m -137.05797,329.59525 a 14.888485,14.888485 0 0 1 -14.88849,14.88848 14.888485,14.888485 0 0 1 -14.88848,-14.88848 14.888485,14.888485 0 0 1 14.88848,-14.88849 14.888485,14.888485 0 0 1 14.88849,14.88849"
             style="fill:none;fill-opacity:1;stroke:#ffed00;stroke-width:4.637;stroke-miterlimit:4;stroke-dasharray:none;stroke-opacity:1"
             id="path378-7-1-9-8" />
        </g>
        <g
           style="font-style:normal;font-weight:normal;font-size:4.56811px;line-height:1.25;font-family:sans-serif;letter-spacing:0.63799px;fill:#b3b2b2;fill-opacity:1;stroke:none;stroke-width:0.114203"
           id="text1715-1-4-8-7-7-4-9-5-0"
           transform="scale(1.0508014,0.95165462)"
           aria-label="TM">
          <path
             inkscape:connector-curvature="0"
             id="path2437"
             style="font-style:normal;font-variant:normal;font-weight:normal;font-stretch:normal;font-family:Verdana;-inkscape-font-specification:Verdana;letter-spacing:0.63799px;fill:#b3b2b2;fill-opacity:1;stroke-width:0.114203"
             d="m 83.915696,22.144683 h -1.186638 v 2.928676 h -0.441643 v -2.928676 h -1.186638 v -0.392572 h 2.814919 z" />
          <path
             inkscape:connector-curvature="0"
             id="path2439"
             style="font-style:normal;font-variant:normal;font-weight:normal;font-stretch:normal;font-family:Verdana;-inkscape-font-specification:Verdana;letter-spacing:0.63799px;fill:#b3b2b2;fill-opacity:1;stroke-width:0.114203"
             d="m 87.961924,25.073359 h -0.441643 v -2.861761 l -0.923437,1.947246 h -0.263201 l -0.916745,-1.947246 v 2.861761 h -0.412647 v -3.321248 h 0.602242 l 0.885517,1.849103 0.856521,-1.849103 h 0.613393 z" />
        </g>
        <g
           id="g1774"
           transform="matrix(1.0369982,0,0,1.0351885,151.62707,-167.20303)">
          <path
             inkscape:connector-curvature="0"
             d="m -160.31757,165.01241 a 17.334747,17.37545 0 0 1 -17.33474,17.37545 17.334747,17.37545 0 0 1 -17.33475,-17.37545 17.334747,17.37545 0 0 1 17.33475,-17.37545 17.334747,17.37545 0 0 1 17.33474,17.37545"
             style="fill:#ffed00;fill-opacity:1;stroke-width:0.130727"
             id="ellipse1698" />
          <g
             style="font-style:normal;font-variant:normal;font-weight:bold;font-stretch:normal;font-size:25.0036px;line-height:1.25;font-family:'Open Sans';-inkscape-font-specification:'Open Sans Bold';font-variant-ligatures:normal;font-variant-caps:normal;font-variant-numeric:normal;font-variant-east-asian:normal;fill:#ffffff;fill-opacity:1;stroke:none;stroke-width:0.625088"
             id="text1702"
             transform="scale(0.97116078,1.0296956)"
             aria-label="!">
            <path
               inkscape:connector-curvature="0"
               id="path2443"
               style="font-style:normal;font-variant:normal;font-weight:bold;font-stretch:normal;font-size:25.0036px;font-family:'Open Sans';-inkscape-font-specification:'Open Sans Bold';font-variant-ligatures:normal;font-variant-caps:normal;font-variant-numeric:normal;font-variant-east-asian:normal;fill:#ffffff;fill-opacity:1;stroke-width:0.625088"
               d="m -183.30336,163.03919 h -2.97895 l -0.62264,-11.92799 h 4.22424 z m -3.65043,4.1754 q 0,-1.02554 0.5494,-1.55051 0.54939,-0.52498 1.59935,-0.52498 1.01333,0 1.56272,0.53719 0.56161,0.53718 0.56161,1.5383 0,0.9645 -0.56161,1.5261 -0.5616,0.5494 -1.56272,0.5494 -1.02554,0 -1.58714,-0.53719 -0.56161,-0.5494 -0.56161,-1.53831 z" />
          </g>
        </g>
      </g>
    </g>
  </g>
</svg>
